<?xml version="1.0" standalone="no"?>
<!DOCTYPE svg PUBLIC "-//W3C//DTD SVG 20010904//EN"
 "http://www.w3.org/TR/2001/REC-SVG-20010904/DTD/svg10.dtd">
<svg version="1.0" xmlns="http://www.w3.org/2000/svg"
 width="313.000000pt" height="313.000000pt" viewBox="0 0 313.000000 313.000000"
 preserveAspectRatio="xMidYMid meet">
<metadata>
Created by potrace 1.14, written by Peter Selinger 2001-2017
</metadata>
<g transform="translate(0.000000,313.000000) scale(0.100000,-0.100000)"
fill="#000000" stroke="none">
<path d="M1975 2628 c-64 -16 -121 -26 -137 -23 -31 7 -253 -73 -373 -134 -41
-21 -75 -34 -75 -30 0 5 11 43 25 85 14 42 25 78 25 80 0 11 -60 1 -95 -16
-51 -25 -72 -25 -80 -1 -6 18 -48 31 -107 31 -24 0 -27 -5 -38 -52 -18 -85
-48 -296 -56 -392 -4 -51 -10 -83 -14 -75 -15 25 -87 243 -94 282 -5 28 -12
37 -26 37 -16 0 -20 7 -20 33 0 28 -5 35 -33 45 -18 7 -36 12 -39 12 -6 0
-124 -195 -180 -298 l-35 -63 -6 53 c-4 29 -7 102 -7 161 0 98 -2 108 -17 105
-12 -2 -20 -16 -23 -38 l-6 -35 -12 37 c-10 28 -10 42 -2 58 6 12 9 28 6 35
-4 11 -28 4 -105 -28 -87 -36 -101 -44 -101 -65 0 -13 -13 -35 -30 -51 l-30
-27 15 -90 c35 -204 86 -407 150 -597 41 -123 41 -128 16 -144 -17 -10 -18
-18 -10 -45 5 -18 18 -41 28 -52 18 -18 19 -22 5 -48 -13 -25 -13 -72 0 -85 2
-3 16 3 30 12 14 10 26 13 26 8 0 -13 -34 -43 -48 -43 -12 0 -16 -18 -12 -55
3 -28 5 -29 32 -11 14 9 28 13 33 9 4 -5 6 -3 2 2 -3 6 3 16 13 23 17 10 19 6
25 -76 3 -48 12 -155 20 -238 19 -191 19 -182 -8 -186 -19 -3 -22 -8 -19 -38
5 -48 14 -54 53 -35 l34 18 -25 -27 c-14 -15 -32 -25 -41 -23 -12 3 -15 -1
-12 -14 4 -13 0 -19 -10 -19 -15 0 -43 -68 -32 -78 2 -2 39 4 82 14 43 10 80
18 83 19 25 5 171 82 221 116 63 42 209 183 209 201 0 5 6 6 13 2 6 -4 9 -4 5
1 -4 4 6 27 23 51 39 57 85 155 100 214 10 41 18 51 53 69 l41 20 3 -62 c3
-53 0 -64 -17 -79 -26 -20 -29 -85 -5 -103 15 -11 15 -14 0 -43 -21 -40 -20
-40 8 -38 13 0 22 4 19 9 -2 4 0 7 5 7 12 0 33 -228 28 -295 -2 -27 0 -53 6
-56 7 -4 6 -13 -1 -27 -6 -11 -11 -34 -11 -51 l0 -31 21 21 c11 11 27 18 35
15 10 -4 12 -2 8 6 -5 8 -2 9 10 5 9 -4 15 -3 11 2 -7 12 81 61 110 61 13 0
26 7 29 16 7 19 127 74 229 105 75 22 82 28 79 68 0 8 4 25 9 38 9 23 8 23
-21 8 -39 -20 -47 -19 -25 5 10 11 26 20 35 20 9 0 17 7 17 15 0 8 -9 15 -19
15 -10 0 -18 7 -18 15 0 8 -2 15 -5 15 -13 0 -185 -70 -234 -94 l-52 -27 2
116 c1 64 3 125 6 135 6 22 144 76 165 64 8 -4 10 -3 5 2 -5 5 20 18 60 30
l68 22 7 81 c4 44 9 85 13 91 9 14 -14 13 -71 -5 -61 -18 -74 -19 -74 -2 0 9
-22 3 -67 -19 -38 -18 -71 -33 -75 -34 -13 0 -9 97 5 108 6 6 71 28 142 50
l130 40 7 -26 c4 -15 21 -83 38 -152 42 -170 122 -441 201 -688 23 -71 39 -73
40 -4 l0 47 16 -40 c9 -22 18 -42 20 -44 2 -3 16 11 32 30 26 30 30 32 36 16
7 -17 10 -16 35 8 15 15 27 34 25 43 -1 9 0 12 2 6 5 -14 51 -25 58 -14 2 4 7
27 11 51 14 94 190 653 263 837 26 66 26 82 1 82 -17 0 -18 3 -10 26 15 38 13
40 -30 36 -22 -2 -40 -2 -40 1 0 3 13 19 29 36 17 18 33 42 36 54 20 76 30
104 43 119 20 24 17 96 -6 127 -10 14 -33 35 -50 47 l-31 21 40 39 c57 56 108
163 116 245 16 181 -94 282 -307 281 -119 -1 -219 -26 -347 -87 -102 -48 -126
-54 -117 -30 4 8 1 15 -5 15 -6 0 -11 5 -11 10 0 6 6 10 14 10 9 0 16 17 21
51 4 27 5 52 4 53 -2 2 -53 -10 -114 -26z m-730 -95 c-9 -52 -25 -66 -25 -22
0 30 14 59 28 59 2 0 1 -17 -3 -37z m905 -123 c-8 -5 -22 -10 -30 -10 -13 0
-13 1 0 10 8 5 22 10 30 10 13 0 13 -1 0 -10z m-128 -27 c-15 -28 -4 -40 31
-35 18 3 28 1 24 -4 -5 -5 -14 -9 -20 -9 -7 0 -12 -9 -12 -19 0 -15 -16 -24
-75 -42 -53 -17 -76 -20 -81 -12 -5 8 -26 4 -71 -15 -35 -15 -68 -27 -73 -27
-12 0 -7 91 6 105 15 15 209 74 247 74 28 1 31 -2 24 -16z m-510 -33 c-42 -26
-64 -25 -33 0 13 11 33 20 45 20 18 0 16 -3 -12 -20z m1028 -5 c20 -11 31 -25
36 -49 8 -45 -1 -71 -43 -116 -33 -37 -130 -107 -137 -99 -5 5 14 259 20 278
6 17 80 9 124 -14z m-2029 -38 c-8 -8 -11 -5 -11 9 0 27 14 41 18 19 2 -9 -1
-22 -7 -28z m866 -18 c8 -8 17 -8 33 1 12 6 24 9 27 6 3 -3 -6 -10 -19 -17
-39 -17 -79 -119 -48 -119 6 0 28 9 50 20 21 11 41 17 43 12 2 -4 5 -31 6 -60
2 -46 -1 -55 -23 -73 -31 -25 -36 -82 -9 -98 15 -8 16 -14 5 -43 -16 -46 -15
-51 9 -38 11 7 23 9 26 6 11 -11 32 -250 23 -261 -5 -6 -5 -17 0 -25 14 -22
-6 -46 -52 -65 -23 -9 -72 -34 -109 -56 -37 -21 -70 -39 -72 -39 -3 0 -8 20
-11 44 -6 35 -16 53 -50 84 -24 22 -54 43 -67 47 -23 8 -23 8 11 21 19 7 47
13 63 13 20 1 27 6 27 22 0 11 7 57 15 102 8 45 26 147 40 227 34 192 57 300
65 300 3 0 11 -5 17 -11z m-920 -21 c-3 -8 -6 -5 -6 6 -1 11 2 17 5 13 3 -3 4
-12 1 -19z m1683 -72 c0 -33 5 -113 10 -176 23 -269 23 -283 12 -276 -7 4 -15
-8 -21 -31 -15 -55 -15 -68 3 -54 8 7 27 11 43 9 l28 -4 -30 -9 c-33 -9 -59
-30 -52 -42 4 -8 -28 -43 -38 -43 -3 0 -10 0 -15 0 -6 0 -15 -11 -22 -24 -12
-28 -41 -45 -31 -19 5 13 2 15 -16 10 -18 -4 -21 -2 -15 15 5 17 3 20 -10 15
-9 -4 -16 -4 -16 -1 0 2 11 9 24 14 20 7 25 17 28 57 2 26 1 63 -3 81 -4 17
-3 32 2 32 5 0 9 7 9 16 0 11 -5 14 -17 9 -10 -4 -27 -10 -38 -13 -19 -4 -19
-4 2 17 12 11 29 21 38 21 8 0 15 9 15 20 0 13 -5 18 -15 14 -9 -4 -15 0 -15
10 0 9 -2 16 -5 16 -11 0 -183 -69 -223 -89 -23 -12 -46 -21 -52 -21 -11 0
-13 199 -1 239 5 20 26 31 126 67 66 24 130 43 141 43 23 1 34 37 34 109 0 18
4 31 8 28 4 -2 18 3 31 13 14 11 34 16 52 13 28 -4 29 -6 29 -66z m-1249 -260
c11 -54 33 -140 48 -192 l28 -94 -68 0 c-37 0 -74 -3 -83 -6 -32 -12 -16 300
21 426 l17 55 9 -45 c5 -25 17 -89 28 -144z m1653 -62 c43 -17 -17 -90 -93
-113 -66 -19 -69 -17 -63 42 2 28 6 54 8 56 12 14 121 25 148 15z m-1490 -94
c7 -24 6 -24 -8 -6 -9 11 -16 27 -16 35 0 21 16 2 24 -29z m1642 14 c-4 -9 -9
-15 -11 -12 -3 3 -3 13 1 22 4 9 9 15 11 12 3 -3 3 -13 -1 -22z m-816 -84 c0
-5 -5 -10 -11 -10 -5 0 -7 5 -4 10 3 6 8 10 11 10 2 0 4 -4 4 -10z m-853 -62
c-3 -8 -6 -5 -6 6 -1 11 2 17 5 13 3 -3 4 -12 1 -19z m-354 -10 c7 -25 3 -33
-12 -23 -13 8 -15 45 -2 45 5 0 11 -10 14 -22z m87 -4 c0 -2 -11 -4 -25 -4
-14 0 -25 4 -25 9 0 4 11 6 25 3 14 -2 25 -6 25 -8z m-140 -34 c0 -4 -6 -10
-14 -13 -10 -4 -12 0 -9 14 5 18 23 18 23 -1z m1510 -49 c0 -5 3 -18 6 -28 5
-16 4 -16 -10 1 -18 23 -20 36 -6 36 6 0 10 -4 10 -9z m296 -17 c-6 -17 -67
-318 -90 -449 -8 -44 -15 -77 -15 -74 -1 4 -8 42 -16 85 -14 74 -65 416 -65
434 0 5 30 11 68 13 37 2 80 4 96 5 22 2 27 -1 22 -14z m197 -4 c-3 -12 -8
-19 -11 -16 -5 6 5 36 12 36 2 0 2 -9 -1 -20z m-1963 -44 c0 -2 -8 -10 -17
-17 -16 -13 -17 -12 -4 4 13 16 21 21 21 13z m1460 -95 c-1 -10 -6 -7 -15 9
-19 33 -18 50 0 26 8 -11 15 -27 15 -35z m-1530 24 c-7 -8 -20 -15 -29 -15
-11 1 -8 5 9 15 32 18 35 18 20 0z m659 -60 c0 -5 -9 1 -19 14 -11 13 -20 28
-20 35 0 6 9 0 20 -14 11 -14 20 -29 19 -35z m211 45 c0 -8 -46 -30 -62 -30
-5 0 0 8 12 18 23 19 50 25 50 12z m-488 -86 c49 -25 68 -61 68 -129 0 -105
-44 -194 -144 -289 l-51 -49 -3 59 c-4 64 16 413 25 427 6 10 70 -2 105 -19z
m378 12 c0 -2 -8 -10 -17 -17 -16 -13 -17 -12 -4 4 13 16 21 21 21 13z m460
-590 c0 -2 -7 -7 -16 -10 -8 -3 -12 -2 -9 4 6 10 25 14 25 6z m474 -42 c9 -24
7 -28 -9 -14 -17 14 -20 30 -6 30 5 0 12 -7 15 -16z m-1554 -39 c-7 -8 -18
-15 -24 -15 -6 0 -2 7 8 15 25 19 32 19 16 0z"/>
<path d="M1246 1588 c3 -5 10 -6 15 -3 13 9 11 12 -6 12 -8 0 -12 -4 -9 -9z"/>
</g>
</svg>
